<svg width="170" height="22" viewBox="0 0 170 22" fill="none" xmlns="http://www.w3.org/2000/svg">
<path fill-rule="evenodd" clip-rule="evenodd" d="M15.4595 0L26.1466 10.6833L15.4616 21.326L8.84092 14.774L11.2496 12.34L15.4538 16.5005L21.2985 10.6789L15.4559 4.83835L4.09786 16.1588L1.68048 13.7335L15.4595 0Z" fill="#45C48D"/>
<path d="M40.821 10.3258C41.4399 10.3258 41.974 10.2495 42.4233 10.0969C42.8726 9.93583 43.2414 9.71965 43.5296 9.44837C43.8178 9.16861 44.0298 8.84223 44.1654 8.46922C44.3011 8.09621 44.3689 7.68928 44.3689 7.24845C44.3689 6.37527 44.0764 5.69707 43.4915 5.21385C42.915 4.73063 42.0333 4.48902 40.8465 4.48902H38.8627V10.3258H40.821ZM49.7606 20.041H46.3145C45.6702 20.041 45.2039 19.7952 44.9157 19.3035L41.406 13.6447C41.2619 13.4243 41.1008 13.2633 40.9228 13.1615C40.7532 13.0598 40.4989 13.0089 40.1598 13.0089H38.8627V20.041H35.0479V1.58971H40.8465C42.1351 1.58971 43.2371 1.72535 44.1527 1.99663C45.0683 2.25943 45.8185 2.6282 46.4035 3.10294C46.9884 3.57769 47.4166 4.14568 47.6878 4.80693C47.9591 5.4597 48.0948 6.18028 48.0948 6.9687C48.0948 7.57908 48.0057 8.15979 47.8277 8.71082C47.6582 9.25339 47.4081 9.74932 47.0775 10.1986C46.7468 10.6479 46.3399 11.0464 45.8567 11.394C45.3735 11.7415 44.8224 12.0213 44.2036 12.2332C44.4494 12.3689 44.6783 12.5342 44.8903 12.7292C45.1022 12.9157 45.2929 13.1403 45.4625 13.4031L49.7606 20.041Z" fill="white"/>
<path d="M58.0194 11.9408C58.0194 11.5762 57.9686 11.2287 57.8668 10.898C57.7736 10.5674 57.621 10.2749 57.409 10.0206C57.1971 9.76628 56.9301 9.56705 56.6079 9.42294C56.2858 9.27034 55.9 9.19404 55.4507 9.19404C54.6115 9.19404 53.9544 9.43141 53.4797 9.90616C53.005 10.3809 52.6955 11.0591 52.5514 11.9408H58.0194ZM52.5006 14.0262C52.6108 15.2555 52.9583 16.1541 53.5433 16.7221C54.1367 17.2901 54.9082 17.5741 55.8577 17.5741C56.3409 17.5741 56.7563 17.519 57.1038 17.4088C57.4599 17.2901 57.7693 17.1629 58.0321 17.0273C58.3034 16.8832 58.545 16.756 58.757 16.6458C58.9774 16.5271 59.1936 16.4678 59.4055 16.4678C59.6768 16.4678 59.8887 16.5695 60.0413 16.773L61.0586 18.0446C60.6856 18.4769 60.2744 18.8372 59.8251 19.1255C59.3758 19.4052 58.9096 19.6299 58.4263 19.7994C57.9431 19.9605 57.4557 20.0707 56.964 20.1301C56.4723 20.1979 55.9975 20.2318 55.5397 20.2318C54.6242 20.2318 53.7679 20.0834 52.9711 19.7867C52.1826 19.4815 51.4917 19.0364 50.8983 18.4515C50.3134 17.8581 49.8513 17.1248 49.5122 16.2516C49.1731 15.3784 49.0036 14.3653 49.0036 13.2124C49.0036 12.3223 49.1477 11.483 49.4359 10.6946C49.7326 9.90615 50.1565 9.21948 50.7076 8.63453C51.2586 8.04958 51.9283 7.58755 52.7167 7.24845C53.5051 6.90088 54.3953 6.72709 55.3871 6.72709C56.2264 6.72709 56.9979 6.86272 57.7015 7.13401C58.4136 7.39681 59.024 7.78254 59.5327 8.29119C60.0498 8.79984 60.4482 9.42718 60.728 10.1732C61.0162 10.9107 61.1603 11.7543 61.1603 12.7037C61.1603 12.9665 61.1476 13.1827 61.1222 13.3523C61.0968 13.5218 61.0544 13.6575 60.995 13.7592C60.9357 13.8609 60.8552 13.933 60.7534 13.9754C60.6517 14.0093 60.5203 14.0262 60.3592 14.0262H52.5006Z" fill="white"/>
<path d="M69.6836 14.5603C68.8274 14.6027 68.1153 14.679 67.5473 14.7892C66.9793 14.8909 66.5258 15.0266 66.1866 15.1961C65.856 15.3657 65.6187 15.5607 65.4745 15.7811C65.3389 15.993 65.2711 16.2262 65.2711 16.4805C65.2711 16.9891 65.411 17.3494 65.6907 17.5614C65.9789 17.7733 66.3774 17.8793 66.886 17.8793C67.471 17.8793 67.9754 17.7775 68.3993 17.5741C68.8316 17.3621 69.2598 17.0358 69.6836 16.5949V14.5603ZM62.5371 8.74897C63.3085 8.05382 64.1605 7.53669 65.093 7.19759C66.0256 6.85001 67.0344 6.67622 68.1195 6.67622C68.8995 6.67622 69.5946 6.80338 70.205 7.05771C70.8239 7.31203 71.3452 7.66809 71.7691 8.12588C72.2015 8.57518 72.5321 9.11351 72.761 9.74084C72.9899 10.3682 73.1043 11.0549 73.1043 11.8009V20.041H71.5021C71.1714 20.041 70.9171 19.9944 70.7391 19.9012C70.5695 19.8079 70.4296 19.6129 70.3194 19.3162L70.0397 18.4769C69.7091 18.7652 69.3869 19.0195 69.0732 19.2399C68.7681 19.4603 68.4501 19.6468 68.1195 19.7994C67.7889 19.9435 67.4328 20.0538 67.0514 20.1301C66.6783 20.2063 66.2587 20.2445 65.7924 20.2445C65.216 20.2445 64.6904 20.1682 64.2156 20.0156C63.7409 19.863 63.3297 19.6384 62.9821 19.3416C62.643 19.0364 62.3802 18.6592 62.1937 18.2099C62.0072 17.7606 61.914 17.2435 61.914 16.6585C61.914 16.1753 62.0369 15.6921 62.2827 15.2088C62.5286 14.7256 62.9482 14.289 63.5417 13.8991C64.1436 13.5006 64.9405 13.1742 65.9323 12.9199C66.9327 12.6571 68.1831 12.5088 69.6836 12.4748V11.8009C69.6836 10.9786 69.5098 10.3767 69.1623 9.99517C68.8147 9.6052 68.3145 9.41022 67.6617 9.41022C67.1785 9.41022 66.7758 9.46956 66.4537 9.58825C66.1315 9.69846 65.8475 9.82138 65.6017 9.95702C65.3643 10.0842 65.1397 10.2071 64.9277 10.3258C64.7158 10.436 64.4699 10.4911 64.1902 10.4911C63.9443 10.4911 63.7366 10.4318 63.5671 10.3131C63.406 10.1859 63.2704 10.0376 63.1602 9.86801L62.5371 8.74897Z" fill="white"/>
<path d="M78.8703 1.08105V20.041H75.3607V4.21333L78.8703 1.08105Z" fill="white"/>
<path d="M91.4825 4.66705C91.4062 4.79421 91.3214 4.8917 91.2282 4.95952C91.1434 5.01886 91.0374 5.04854 90.9103 5.04854C90.7662 5.04854 90.5966 4.97648 90.4016 4.83236C90.2066 4.68824 89.9608 4.53141 89.6641 4.36186C89.3759 4.18383 89.024 4.02276 88.6086 3.87864C88.2017 3.73452 87.7058 3.66246 87.1208 3.66246C86.5698 3.66246 86.0823 3.73876 85.6585 3.89135C85.2431 4.03547 84.8912 4.23469 84.603 4.48902C84.3232 4.74334 84.1113 5.0443 83.9672 5.39187C83.8231 5.73098 83.751 6.09975 83.751 6.49819C83.751 7.00684 83.8739 7.43072 84.1198 7.76982C84.3741 8.10044 84.7047 8.38444 85.1116 8.62181C85.5271 8.85918 85.9933 9.06688 86.5104 9.24491C87.0361 9.41446 87.5701 9.59249 88.1127 9.77899C88.6637 9.9655 89.1978 10.1774 89.715 10.4148C90.2406 10.6437 90.7068 10.9362 91.1137 11.2922C91.5291 11.6483 91.8598 12.0849 92.1056 12.602C92.3599 13.1191 92.4871 13.755 92.4871 14.5095C92.4871 15.3063 92.3515 16.0566 92.0802 16.7602C91.8089 17.4554 91.4105 18.0615 90.8848 18.5787C90.3677 19.0958 89.7277 19.5027 88.9647 19.7994C88.2102 20.0961 87.3497 20.2445 86.3833 20.2445C85.1964 20.2445 84.1198 20.0326 83.1533 19.6087C82.1869 19.1763 81.3604 18.5956 80.6737 17.8666L81.3858 16.6967C81.4536 16.6034 81.5341 16.5271 81.6274 16.4678C81.7291 16.3999 81.8393 16.366 81.958 16.366C82.0682 16.366 82.1911 16.4127 82.3268 16.5059C82.4709 16.5907 82.632 16.7009 82.81 16.8365C82.988 16.9722 83.1915 17.1205 83.4204 17.2816C83.6493 17.4427 83.9078 17.591 84.1961 17.7267C84.4928 17.8623 84.8277 17.9768 85.2007 18.07C85.5737 18.1548 85.9933 18.1972 86.4596 18.1972C87.0445 18.1972 87.5659 18.1166 88.0237 17.9556C88.4815 17.7945 88.8672 17.5698 89.1809 17.2816C89.503 16.9849 89.7489 16.6331 89.9184 16.2262C90.088 15.8192 90.1727 15.3657 90.1727 14.8655C90.1727 14.3145 90.0456 13.8652 89.7912 13.5176C89.5454 13.1615 89.219 12.8648 88.8121 12.6274C88.4052 12.3901 87.9389 12.1908 87.4133 12.0298C86.8877 11.8602 86.3536 11.6907 85.8111 11.5211C85.2685 11.3431 84.7344 11.1396 84.2088 10.9107C83.6832 10.6818 83.2169 10.3851 82.81 10.0206C82.4031 9.65607 82.0725 9.20252 81.8181 8.65996C81.5723 8.10892 81.4494 7.43072 81.4494 6.62535C81.4494 5.98106 81.5723 5.35797 81.8181 4.75606C82.0725 4.15416 82.437 3.62007 82.9117 3.15381C83.395 2.68755 83.9841 2.31453 84.6793 2.03478C85.3829 1.75502 86.1883 1.61514 87.0954 1.61514C88.1127 1.61514 89.0368 1.77621 89.8675 2.09836C90.7068 2.4205 91.4444 2.88677 92.0802 3.49715L91.4825 4.66705Z" fill="white"/>
<path d="M101.735 14.2424C100.692 14.2763 99.8023 14.3611 99.0648 14.4967C98.3357 14.6239 97.7381 14.7934 97.2718 15.0054C96.814 15.2173 96.4792 15.4674 96.2672 15.7556C96.0638 16.0439 95.962 16.366 95.962 16.7221C95.962 17.0612 96.0171 17.3537 96.1273 17.5995C96.2375 17.8454 96.3859 18.0488 96.5724 18.2099C96.7674 18.3625 96.992 18.4769 97.2464 18.5532C97.5092 18.621 97.7889 18.655 98.0856 18.655C98.4841 18.655 98.8486 18.6168 99.1792 18.5405C99.5099 18.4557 99.8193 18.3371 100.108 18.1845C100.404 18.0319 100.684 17.8496 100.947 17.6377C101.218 17.4257 101.481 17.1841 101.735 16.9128V14.2424ZM94.4234 8.97787C95.1355 8.29119 95.9027 7.7783 96.725 7.4392C97.5473 7.1001 98.4587 6.93055 99.459 6.93055C100.18 6.93055 100.82 7.04923 101.379 7.2866C101.939 7.52397 102.409 7.8546 102.791 8.27847C103.172 8.70235 103.46 9.21524 103.655 9.81714C103.85 10.419 103.948 11.0803 103.948 11.8009V20.041H102.943C102.723 20.041 102.553 20.0071 102.435 19.9393C102.316 19.863 102.223 19.7189 102.155 19.507L101.901 18.2862C101.561 18.5999 101.231 18.8796 100.909 19.1255C100.587 19.3628 100.247 19.5663 99.8914 19.7358C99.5353 19.8969 99.1538 20.0198 98.7469 20.1046C98.3484 20.1979 97.9034 20.2445 97.4117 20.2445C96.9115 20.2445 96.441 20.1767 96.0002 20.041C95.5593 19.8969 95.1736 19.685 94.843 19.4052C94.5208 19.1255 94.2623 18.7736 94.0673 18.3498C93.8808 17.9174 93.7875 17.4088 93.7875 16.8238C93.7875 16.3152 93.9274 15.8277 94.2072 15.3614C94.4869 14.8867 94.9405 14.4671 95.5678 14.1025C96.1952 13.738 97.0132 13.4413 98.0221 13.2124C99.0309 12.975 100.269 12.8394 101.735 12.8055V11.8009C101.735 10.8005 101.519 10.046 101.087 9.53738C100.654 9.02026 100.023 8.76169 99.192 8.76169C98.6324 8.76169 98.1619 8.83375 97.7805 8.97787C97.4074 9.11351 97.0811 9.27034 96.8013 9.44837C96.53 9.61792 96.2926 9.77475 96.0892 9.91887C95.8942 10.0545 95.6992 10.1223 95.5042 10.1223C95.3516 10.1223 95.2202 10.0842 95.11 10.0079C94.9998 9.92311 94.9066 9.82138 94.8303 9.7027L94.4234 8.97787Z" fill="white"/>
<path d="M118.667 20.041H116.403V9.05417H109.765V16.7857C109.765 17.3282 109.897 17.7309 110.159 17.9937C110.422 18.2565 110.761 18.3879 111.177 18.3879C111.414 18.3879 111.617 18.3582 111.787 18.2989C111.965 18.2311 112.118 18.159 112.245 18.0827C112.372 18.0064 112.478 17.9386 112.563 17.8793C112.656 17.8114 112.737 17.7775 112.804 17.7775C112.923 17.7775 113.029 17.8496 113.122 17.9937L113.783 19.0746C113.394 19.4391 112.923 19.7274 112.372 19.9393C111.821 20.1428 111.253 20.2445 110.668 20.2445C109.651 20.2445 108.867 19.9605 108.315 19.3925C107.773 18.8245 107.502 18.0064 107.502 16.9383V9.05417H105.95C105.815 9.05417 105.7 9.01602 105.607 8.93972C105.514 8.85494 105.467 8.72778 105.467 8.55823V7.65537L107.578 7.37562L108.099 3.40813C108.125 3.28097 108.18 3.17924 108.265 3.10294C108.358 3.01817 108.477 2.97578 108.621 2.97578H109.765V7.41376H118.667V20.041ZM119.226 3.02665C119.226 3.24706 119.179 3.45476 119.086 3.64974C119.001 3.83625 118.883 4.00156 118.73 4.14568C118.586 4.2898 118.416 4.40424 118.221 4.48902C118.026 4.57379 117.819 4.61618 117.598 4.61618C117.378 4.61618 117.17 4.57379 116.975 4.48902C116.789 4.40424 116.623 4.2898 116.479 4.14568C116.335 4.00156 116.221 3.83625 116.136 3.64974C116.051 3.45476 116.009 3.24706 116.009 3.02665C116.009 2.80623 116.051 2.59853 116.136 2.40355C116.221 2.20009 116.335 2.0263 116.479 1.88218C116.623 1.72958 116.789 1.6109 116.975 1.52612C117.17 1.44135 117.378 1.39896 117.598 1.39896C117.819 1.39896 118.026 1.44135 118.221 1.52612C118.416 1.6109 118.586 1.72958 118.73 1.88218C118.883 2.0263 119.001 2.20009 119.086 2.40355C119.179 2.59853 119.226 2.80623 119.226 3.02665Z" fill="white"/>
<path d="M129.379 9.28306C129.277 9.46956 129.12 9.56282 128.909 9.56282C128.781 9.56282 128.637 9.51619 128.476 9.42294C128.315 9.32968 128.116 9.22796 127.879 9.11775C127.65 8.99906 127.374 8.89309 127.052 8.79984C126.73 8.69811 126.348 8.64724 125.907 8.64724C125.526 8.64724 125.183 8.69811 124.877 8.79984C124.572 8.89309 124.309 9.02449 124.089 9.19404C123.877 9.3636 123.712 9.56282 123.593 9.79171C123.483 10.0121 123.428 10.2537 123.428 10.5165C123.428 10.8472 123.521 11.1227 123.708 11.3431C123.903 11.5635 124.157 11.7543 124.471 11.9153C124.784 12.0764 125.14 12.2205 125.539 12.3477C125.937 12.4664 126.344 12.5978 126.759 12.7419C127.183 12.8775 127.595 13.0301 127.993 13.1997C128.391 13.3692 128.747 13.5812 129.061 13.8355C129.375 14.0898 129.625 14.4035 129.811 14.7765C130.006 15.141 130.104 15.5819 130.104 16.099C130.104 16.6924 129.998 17.2435 129.786 17.7521C129.574 18.2523 129.26 18.6889 128.845 19.0619C128.43 19.4264 127.921 19.7146 127.319 19.9266C126.717 20.1385 126.022 20.2445 125.234 20.2445C124.335 20.2445 123.521 20.1004 122.792 19.8121C122.063 19.5154 121.444 19.1382 120.935 18.6804L121.469 17.8157C121.537 17.7055 121.618 17.6207 121.711 17.5614C121.804 17.502 121.923 17.4723 122.067 17.4723C122.22 17.4723 122.381 17.5317 122.55 17.6504C122.72 17.7691 122.923 17.9005 123.161 18.0446C123.407 18.1887 123.703 18.3201 124.051 18.4388C124.398 18.5575 124.831 18.6168 125.348 18.6168C125.789 18.6168 126.175 18.5617 126.505 18.4515C126.836 18.3328 127.111 18.176 127.332 17.981C127.552 17.786 127.713 17.5614 127.815 17.307C127.925 17.0527 127.98 16.7814 127.98 16.4932C127.98 16.1371 127.883 15.8447 127.688 15.6158C127.501 15.3784 127.251 15.1792 126.938 15.0181C126.624 14.8486 126.264 14.7044 125.857 14.5857C125.458 14.4586 125.047 14.3272 124.623 14.1915C124.208 14.0559 123.797 13.9033 123.39 13.7338C122.991 13.5557 122.635 13.3353 122.321 13.0725C122.008 12.8097 121.753 12.4876 121.559 12.1061C121.372 11.7161 121.279 11.2456 121.279 10.6946C121.279 10.2029 121.38 9.73237 121.584 9.28306C121.787 8.82527 122.084 8.42683 122.474 8.08773C122.864 7.74015 123.343 7.46463 123.911 7.26117C124.479 7.05771 125.128 6.95598 125.857 6.95598C126.704 6.95598 127.463 7.09162 128.133 7.3629C128.811 7.6257 129.396 7.99024 129.888 8.4565L129.379 9.28306Z" fill="white"/>
<path d="M133.235 20.041V9.09231L131.811 8.927C131.624 8.88461 131.476 8.82103 131.366 8.73626C131.256 8.64301 131.2 8.5116 131.2 8.34205V7.41376H133.235V6.70165C133.235 5.91324 133.358 5.19265 133.604 4.53988C133.85 3.87864 134.218 3.31064 134.71 2.8359C135.202 2.36116 135.812 1.99239 136.541 1.72958C137.279 1.46678 138.131 1.33538 139.097 1.33538C139.419 1.33538 139.75 1.35657 140.089 1.39896C140.428 1.44135 140.721 1.50493 140.967 1.58971L140.878 2.77232C140.869 2.8571 140.835 2.91644 140.776 2.95035C140.725 2.98426 140.653 3.00545 140.56 3.01393C140.466 3.02241 140.348 3.02665 140.204 3.02665C140.068 3.01817 139.911 3.01393 139.733 3.01393C138.224 3.01393 137.13 3.3276 136.452 3.95493C135.774 4.57379 135.435 5.51056 135.435 6.76523V7.41376H143.217V20.041H140.941V9.05417H135.499V20.041H133.235Z" fill="white"/>
<path d="M155.037 12.1951C155.037 11.6695 154.961 11.1905 154.809 10.7581C154.664 10.3173 154.448 9.94007 154.16 9.6264C153.88 9.30425 153.537 9.0584 153.13 8.88885C152.723 8.71082 152.261 8.62181 151.744 8.62181C150.659 8.62181 149.798 8.93972 149.163 9.57553C148.535 10.2029 148.145 11.0761 147.993 12.1951H155.037ZM156.869 18.2353C156.589 18.5744 156.254 18.8711 155.864 19.1255C155.474 19.3713 155.054 19.5748 154.605 19.7358C154.164 19.8969 153.707 20.0156 153.232 20.0919C152.757 20.1767 152.287 20.2191 151.82 20.2191C150.93 20.2191 150.108 20.0707 149.353 19.774C148.607 19.4688 147.959 19.028 147.408 18.4515C146.865 17.8666 146.441 17.146 146.136 16.2897C145.831 15.4335 145.678 14.4501 145.678 13.3396C145.678 12.4409 145.814 11.6017 146.085 10.8217C146.365 10.0418 146.763 9.36784 147.281 8.79984C147.798 8.22337 148.429 7.77406 149.175 7.45191C149.921 7.12129 150.761 6.95598 151.693 6.95598C152.465 6.95598 153.177 7.08738 153.829 7.35018C154.491 7.60451 155.059 7.97752 155.533 8.46922C156.017 8.95244 156.394 9.55434 156.665 10.2749C156.936 10.987 157.072 11.8009 157.072 12.7165C157.072 13.0725 157.034 13.3099 156.958 13.4286C156.881 13.5473 156.737 13.6066 156.525 13.6066H147.916C147.942 14.4204 148.052 15.1283 148.247 15.7302C148.45 16.3321 148.73 16.8365 149.086 17.2435C149.442 17.6419 149.866 17.9428 150.358 18.1463C150.85 18.3413 151.401 18.4388 152.011 18.4388C152.579 18.4388 153.066 18.3752 153.473 18.248C153.889 18.1124 154.245 17.9683 154.542 17.8157C154.838 17.6631 155.084 17.5232 155.279 17.396C155.483 17.2604 155.656 17.1926 155.8 17.1926C155.987 17.1926 156.131 17.2646 156.233 17.4088L156.869 18.2353Z" fill="white"/>
<path d="M167.736 10.2241C167.313 9.65607 166.855 9.26186 166.363 9.04145C165.871 8.81256 165.32 8.69811 164.71 8.69811C163.515 8.69811 162.595 9.12622 161.951 9.98245C161.306 10.8387 160.984 12.0594 160.984 13.6447C160.984 14.484 161.056 15.2046 161.2 15.8065C161.344 16.3999 161.556 16.8916 161.836 17.2816C162.116 17.6631 162.459 17.9429 162.866 18.1209C163.273 18.2989 163.735 18.3879 164.252 18.3879C164.998 18.3879 165.647 18.2184 166.198 17.8793C166.757 17.5402 167.27 17.0612 167.736 16.4423V10.2241ZM170 1.30995V20.041H168.652C168.33 20.041 168.126 19.8842 168.042 19.5705L167.838 18.0064C167.287 18.6677 166.66 19.2018 165.956 19.6087C165.253 20.0156 164.439 20.2191 163.515 20.2191C162.777 20.2191 162.107 20.0792 161.506 19.7994C160.904 19.5112 160.391 19.0916 159.967 18.5405C159.543 17.9895 159.217 17.3028 158.988 16.4805C158.759 15.6582 158.644 14.7129 158.644 13.6447C158.644 12.6953 158.772 11.8136 159.026 10.9998C159.28 10.1774 159.645 9.46533 160.119 8.86342C160.594 8.26152 161.175 7.79101 161.862 7.45191C162.557 7.10433 163.337 6.93055 164.201 6.93055C164.99 6.93055 165.664 7.06619 166.223 7.33747C166.791 7.60027 167.296 7.96904 167.736 8.44378V1.30995H170Z" fill="white"/>
</svg>
