<svg width="302" height="377" viewBox="0 0 302 377" fill="none" xmlns="http://www.w3.org/2000/svg">
<path d="M143.16 161.952C142.63 161.792 142.09 161.682 141.55 161.602L119.73 117.272L126.39 107.282L112.63 95.2617L95.3398 116.422L130.56 167.682C129.69 169.622 129.44 171.782 129.83 173.862C130.22 175.952 131.23 177.872 132.74 179.362C134.25 180.862 136.17 181.862 138.26 182.232C140.35 182.612 142.5 182.332 144.44 181.462C146.37 180.582 147.99 179.132 149.08 177.312C150.17 175.492 150.68 173.382 150.54 171.262C150.4 169.142 149.62 167.112 148.3 165.452C146.98 163.782 145.19 162.562 143.16 161.942V161.952Z" fill="#FBD4C3"/>
<path d="M105.92 101.38C106.22 101.69 106.56 101.96 106.93 102.18L129.25 115.12C129.79 115.43 130.38 115.63 131 115.7C131.62 115.77 132.24 115.71 132.83 115.53C133.42 115.34 133.97 115.04 134.44 114.63C134.91 114.22 135.29 113.72 135.55 113.16L146.41 90.2197C146.87 89.2497 146.97 88.1597 146.69 87.1197C146.41 86.0897 145.76 85.1897 144.88 84.5897L131.04 75.1797C130.18 74.5897 129.13 74.3297 128.09 74.4197C127.05 74.5197 126.08 74.9797 125.34 75.7197L106 95.1297C105.18 95.9597 104.71 97.0697 104.69 98.2297C104.68 99.3997 105.11 100.52 105.91 101.37L105.92 101.38Z" fill="#D7D9DB"/>
<path d="M74.5703 355.419L86.3603 358.629L104.34 314.699L86.9403 309.969L74.5703 355.429V355.419Z" fill="#FBD4C3"/>
<path d="M95.7001 357.551L72.9701 351.371L69.0801 365.681L106.12 375.761C106.63 373.881 106.77 371.921 106.52 369.991C106.27 368.061 105.65 366.191 104.68 364.501C103.71 362.811 102.42 361.331 100.88 360.131C99.3401 358.941 97.5801 358.061 95.7001 357.551Z" fill="#242C37"/>
<path d="M175.33 364.411H187.54L193.35 317.301H175.32V364.411H175.33Z" fill="#FBD4C3"/>
<path d="M196.271 360.922H172.711V375.752H211.101C211.101 373.802 210.721 371.872 209.971 370.072C209.231 368.272 208.131 366.642 206.761 365.262C205.381 363.882 203.751 362.792 201.951 362.052C200.151 361.312 198.221 360.922 196.271 360.922Z" fill="#242C37"/>
<path d="M171.34 51.3297C159.96 58.6097 144.82 55.2897 137.54 43.9097C130.25 32.5297 133.58 17.3897 144.96 10.1097C156.34 2.82967 171.48 6.14967 178.76 17.5297C186.05 28.9097 182.72 44.0497 171.34 51.3297Z" fill="#FBD4C3"/>
<path d="M176.079 330.822H192.769C193.909 330.822 195.009 330.382 195.839 329.602C196.669 328.822 197.179 327.752 197.249 326.612C202.219 247.542 199.319 190.822 188.089 148.122C188.039 147.932 187.979 147.752 187.909 147.572L187.019 145.332C186.689 144.502 186.119 143.782 185.369 143.282C184.629 142.782 183.749 142.512 182.849 142.512H148.529C147.879 142.512 147.239 142.652 146.659 142.922C146.069 143.192 145.549 143.582 145.129 144.082L140.469 149.522C140.379 149.632 140.289 149.732 140.209 149.852C119.189 179.172 100.349 236.482 78.5295 313.522C78.2095 314.642 78.3395 315.842 78.8895 316.872C79.4395 317.902 80.3695 318.672 81.4795 319.022L99.4195 324.762C100.449 325.082 101.559 325.032 102.549 324.602C103.539 324.172 104.349 323.402 104.819 322.432L151.369 225.882C151.689 225.212 152.229 224.652 152.889 224.312C153.549 223.962 154.309 223.842 155.049 223.952C155.789 224.072 156.469 224.422 156.999 224.952C157.519 225.482 157.859 226.172 157.959 226.922L171.639 326.942C171.789 328.012 172.319 328.992 173.139 329.712C173.959 330.422 174.999 330.822 176.079 330.822Z" fill="#242C37"/>
<path d="M142.35 149.918C142.35 149.918 142.44 149.918 142.49 149.918L184.18 148.598C185.25 148.568 186.28 148.158 187.07 147.428C187.86 146.708 188.37 145.718 188.49 144.658C193.78 101.878 179.28 90.4083 172.8 87.4683C172.26 87.2283 171.79 86.8483 171.44 86.3683C171.09 85.8883 170.87 85.3283 170.8 84.7383L170.24 80.2583C170.14 79.4683 169.84 78.7183 169.35 78.0783C159.19 64.9183 145.33 60.7083 137.96 59.3683C137.36 59.2583 136.75 59.2783 136.16 59.4083C135.57 59.5383 135.01 59.7983 134.52 60.1583C134.03 60.5183 133.62 60.9683 133.31 61.4983C133 62.0183 132.8 62.5983 132.73 63.1983L131.89 69.6383C131.8 70.2483 131.56 70.8383 131.18 71.3283C110 99.0183 133.6 139.898 138.54 147.818C138.94 148.458 139.5 148.988 140.17 149.358C140.83 149.728 141.58 149.918 142.34 149.918H142.35Z" fill="#D7D9DB"/>
<path d="M118.018 58.64C118.478 49.22 120.298 39.92 123.418 31.03C126.018 23.64 129.588 16.46 134.918 10.71C140.248 4.95999 147.478 0.729989 155.288 0.099989C163.098 -0.530011 173.058 1.76999 177.328 8.33999C178.698 10.45 179.988 13.67 177.668 14.64L177.118 15.11C171.428 17.32 165.738 19.52 160.058 21.73C162.678 30.55 165.298 39.37 167.918 48.18C168.468 50.04 168.988 52.18 167.918 53.8C166.918 55.33 164.918 55.77 163.118 56.09C162.818 56.14 157.938 52.92 157.938 52.92C157.798 52.81 157.628 52.74 157.458 52.72C157.278 52.7 157.108 52.72 156.938 52.79C156.778 52.86 156.638 52.97 156.528 53.11C156.418 53.25 156.358 53.42 156.338 53.6L156.098 55.85C156.048 56.28 155.868 56.68 155.568 57C155.278 57.32 154.888 57.53 154.458 57.6C144.048 59.43 133.638 61.25 123.228 63.08C121.788 63.33 120.128 63.53 119.038 62.55C117.998 61.62 117.958 60.02 118.018 58.63V58.64Z" fill="#242C37"/>
<path d="M0.99 376.65H300.88C301.15 376.65 301.4 376.55 301.58 376.36C301.77 376.17 301.87 375.92 301.87 375.66C301.87 375.4 301.76 375.14 301.58 374.95C301.39 374.76 301.14 374.66 300.88 374.66H0.99C0.73 374.66 0.47 374.76 0.29 374.95C0.1 375.14 0 375.39 0 375.66C0 375.93 0.1 376.18 0.29 376.36C0.48 376.55 0.73 376.65 0.99 376.65Z" fill="#D7D9DB"/>
<path d="M163.571 221.392C164.251 221.392 164.911 221.172 165.451 220.772L169.991 217.482C170.371 217.202 170.821 217.062 171.291 217.062C171.761 217.062 172.211 217.212 172.591 217.482L177.121 220.772C177.671 221.172 178.331 221.382 179.001 221.382C179.671 221.382 180.341 221.172 180.881 220.772C181.421 220.372 181.831 219.812 182.041 219.172C182.251 218.532 182.251 217.832 182.041 217.192L180.311 211.862C180.161 211.422 180.161 210.942 180.311 210.502C180.461 210.062 180.741 209.672 181.111 209.402L185.651 206.112C186.201 205.712 186.601 205.152 186.811 204.512C187.021 203.872 187.021 203.172 186.811 202.532C186.601 201.892 186.191 201.332 185.651 200.932C185.101 200.532 184.441 200.322 183.771 200.322H178.161C177.691 200.322 177.241 200.172 176.861 199.902C176.481 199.632 176.201 199.242 176.061 198.802L174.331 193.472C174.121 192.832 173.711 192.272 173.171 191.872C172.621 191.472 171.961 191.262 171.291 191.262C170.621 191.262 169.951 191.482 169.411 191.872C168.861 192.272 168.461 192.832 168.251 193.472L166.521 198.802C166.381 199.242 166.101 199.632 165.721 199.902C165.341 200.172 164.891 200.322 164.421 200.322H158.821C158.141 200.322 157.481 200.532 156.941 200.932C156.391 201.332 155.991 201.892 155.781 202.532C155.571 203.172 155.571 203.872 155.781 204.512C155.991 205.152 156.401 205.712 156.941 206.112L161.481 209.402C161.861 209.672 162.141 210.062 162.281 210.502C162.421 210.942 162.421 211.422 162.281 211.862L160.551 217.192C160.331 217.832 160.331 218.532 160.541 219.172C160.751 219.822 161.161 220.382 161.711 220.772C162.251 221.172 162.911 221.392 163.591 221.392H163.571Z" fill="#45C48D"/>
<path d="M146.24 210.73C144.96 209.83 143.89 208.66 143.11 207.31C142.33 205.95 141.85 204.44 141.72 202.88C141.59 201.32 141.8 199.75 142.33 198.28C142.87 196.81 143.72 195.48 144.83 194.37L137.09 100.84L160.15 104.01L160.59 194.88C162.32 196.87 163.26 199.42 163.24 202.05C163.21 204.68 162.22 207.22 160.45 209.17C158.68 211.12 156.26 212.36 153.64 212.64C151.02 212.93 148.39 212.24 146.24 210.71V210.73Z" fill="#FBD4C3"/>
<path d="M135.579 114.319C136.009 114.319 136.439 114.259 136.859 114.139L161.609 106.86C162.209 106.69 162.759 106.389 163.229 105.989C163.709 105.589 164.089 105.1 164.369 104.54C164.649 103.98 164.799 103.38 164.829 102.76C164.859 102.14 164.759 101.52 164.529 100.94L155.369 77.2695C154.989 76.2695 154.259 75.4395 153.319 74.9295C152.379 74.4195 151.279 74.2695 150.239 74.4995L133.889 78.0595C132.869 78.2795 131.959 78.8495 131.309 79.6795C130.669 80.4995 130.329 81.5195 130.359 82.5695L131.119 109.959C131.149 111.129 131.639 112.23 132.469 113.05C133.309 113.86 134.419 114.32 135.589 114.33L135.579 114.319Z" fill="#D7D9DB"/>
</svg>
